<svg xmlns="http://www.w3.org/2000/svg" width="920" height="390" viewBox="0 0 920 390" role="img" aria-label="Current human-labeled route mix">
  <rect width="100%" height="100%" fill="#ffffff"/>
  <text x="30" y="34" font-size="22" font-weight="700" fill="#102027">Current human-labeled route mix</text>
  <text x="30" y="58" font-size="13" fill="#607d8b">Each square is approximately 1% of the labeled set.</text>
  <rect x="48" y="78" width="20" height="20" rx="3" fill="#00897b"/><rect x="73" y="78" width="20" height="20" rx="3" fill="#00897b"/><rect x="98" y="78" width="20" height="20" rx="3" fill="#00897b"/><rect x="123" y="78" width="20" height="20" rx="3" fill="#00897b"/><rect x="148" y="78" width="20" height="20" rx="3" fill="#00897b"/><rect x="173" y="78" width="20" height="20" rx="3" fill="#00897b"/><rect x="198" y="78" width="20" height="20" rx="3" fill="#00897b"/><rect x="223" y="78" width="20" height="20" rx="3" fill="#00897b"/><rect x="248" y="78" width="20" height="20" rx="3" fill="#00897b"/><rect x="273" y="78" width="20" height="20" rx="3" fill="#00897b"/><rect x="48" y="103" width="20" height="20" rx="3" fill="#00897b"/><rect x="73" y="103" width="20" height="20" rx="3" fill="#00897b"/><rect x="98" y="103" width="20" height="20" rx="3" fill="#00897b"/><rect x="123" y="103" width="20" height="20" rx="3" fill="#00897b"/><rect x="148" y="103" width="20" height="20" rx="3" fill="#00897b"/><rect x="173" y="103" width="20" height="20" rx="3" fill="#00897b"/><rect x="198" y="103" width="20" height="20" rx="3" fill="#00897b"/><rect x="223" y="103" width="20" height="20" rx="3" fill="#00897b"/><rect x="248" y="103" width="20" height="20" rx="3" fill="#00897b"/><rect x="273" y="103" width="20" height="20" rx="3" fill="#00897b"/><rect x="48" y="128" width="20" height="20" rx="3" fill="#00897b"/><rect x="73" y="128" width="20" height="20" rx="3" fill="#00897b"/><rect x="98" y="128" width="20" height="20" rx="3" fill="#00897b"/><rect x="123" y="128" width="20" height="20" rx="3" fill="#00897b"/><rect x="148" y="128" width="20" height="20" rx="3" fill="#00897b"/><rect x="173" y="128" width="20" height="20" rx="3" fill="#00897b"/><rect x="198" y="128" width="20" height="20" rx="3" fill="#00897b"/><rect x="223" y="128" width="20" height="20" rx="3" fill="#00897b"/><rect x="248" y="128" width="20" height="20" rx="3" fill="#00897b"/><rect x="273" y="128" width="20" height="20" rx="3" fill="#00897b"/><rect x="48" y="153" width="20" height="20" rx="3" fill="#00897b"/><rect x="73" y="153" width="20" height="20" rx="3" fill="#00897b"/><rect x="98" y="153" width="20" height="20" rx="3" fill="#00897b"/><rect x="123" y="153" width="20" height="20" rx="3" fill="#00897b"/><rect x="148" y="153" width="20" height="20" rx="3" fill="#00897b"/><rect x="173" y="153" width="20" height="20" rx="3" fill="#00897b"/><rect x="198" y="153" width="20" height="20" rx="3" fill="#00897b"/><rect x="223" y="153" width="20" height="20" rx="3" fill="#00897b"/><rect x="248" y="153" width="20" height="20" rx="3" fill="#00897b"/><rect x="273" y="153" width="20" height="20" rx="3" fill="#00897b"/><rect x="48" y="178" width="20" height="20" rx="3" fill="#00897b"/><rect x="73" y="178" width="20" height="20" rx="3" fill="#00897b"/><rect x="98" y="178" width="20" height="20" rx="3" fill="#00897b"/><rect x="123" y="178" width="20" height="20" rx="3" fill="#00897b"/><rect x="148" y="178" width="20" height="20" rx="3" fill="#00897b"/><rect x="173" y="178" width="20" height="20" rx="3" fill="#00897b"/><rect x="198" y="178" width="20" height="20" rx="3" fill="#00897b"/><rect x="223" y="178" width="20" height="20" rx="3" fill="#00897b"/><rect x="248" y="178" width="20" height="20" rx="3" fill="#00897b"/><rect x="273" y="178" width="20" height="20" rx="3" fill="#00897b"/><rect x="48" y="203" width="20" height="20" rx="3" fill="#00897b"/><rect x="73" y="203" width="20" height="20" rx="3" fill="#00897b"/><rect x="98" y="203" width="20" height="20" rx="3" fill="#00897b"/><rect x="123" y="203" width="20" height="20" rx="3" fill="#00897b"/><rect x="148" y="203" width="20" height="20" rx="3" fill="#00897b"/><rect x="173" y="203" width="20" height="20" rx="3" fill="#00897b"/><rect x="198" y="203" width="20" height="20" rx="3" fill="#00897b"/><rect x="223" y="203" width="20" height="20" rx="3" fill="#00897b"/><rect x="248" y="203" width="20" height="20" rx="3" fill="#00897b"/><rect x="273" y="203" width="20" height="20" rx="3" fill="#00897b"/><rect x="48" y="228" width="20" height="20" rx="3" fill="#5c6bc0"/><rect x="73" y="228" width="20" height="20" rx="3" fill="#5c6bc0"/><rect x="98" y="228" width="20" height="20" rx="3" fill="#5c6bc0"/><rect x="123" y="228" width="20" height="20" rx="3" fill="#5c6bc0"/><rect x="148" y="228" width="20" height="20" rx="3" fill="#5c6bc0"/><rect x="173" y="228" width="20" height="20" rx="3" fill="#5c6bc0"/><rect x="198" y="228" width="20" height="20" rx="3" fill="#5c6bc0"/><rect x="223" y="228" width="20" height="20" rx="3" fill="#5c6bc0"/><rect x="248" y="228" width="20" height="20" rx="3" fill="#5c6bc0"/><rect x="273" y="228" width="20" height="20" rx="3" fill="#5c6bc0"/><rect x="48" y="253" width="20" height="20" rx="3" fill="#5c6bc0"/><rect x="73" y="253" width="20" height="20" rx="3" fill="#5c6bc0"/><rect x="98" y="253" width="20" height="20" rx="3" fill="#5c6bc0"/><rect x="123" y="253" width="20" height="20" rx="3" fill="#5c6bc0"/><rect x="148" y="253" width="20" height="20" rx="3" fill="#5c6bc0"/><rect x="173" y="253" width="20" height="20" rx="3" fill="#5c6bc0"/><rect x="198" y="253" width="20" height="20" rx="3" fill="#5c6bc0"/><rect x="223" y="253" width="20" height="20" rx="3" fill="#5c6bc0"/><rect x="248" y="253" width="20" height="20" rx="3" fill="#5c6bc0"/><rect x="273" y="253" width="20" height="20" rx="3" fill="#5c6bc0"/><rect x="48" y="278" width="20" height="20" rx="3" fill="#5c6bc0"/><rect x="73" y="278" width="20" height="20" rx="3" fill="#5c6bc0"/><rect x="98" y="278" width="20" height="20" rx="3" fill="#5c6bc0"/><rect x="123" y="278" width="20" height="20" rx="3" fill="#5c6bc0"/><rect x="148" y="278" width="20" height="20" rx="3" fill="#5c6bc0"/><rect x="173" y="278" width="20" height="20" rx="3" fill="#5c6bc0"/><rect x="198" y="278" width="20" height="20" rx="3" fill="#5c6bc0"/><rect x="223" y="278" width="20" height="20" rx="3" fill="#f9a825"/><rect x="248" y="278" width="20" height="20" rx="3" fill="#f9a825"/><rect x="273" y="278" width="20" height="20" rx="3" fill="#f9a825"/><rect x="48" y="303" width="20" height="20" rx="3" fill="#f9a825"/><rect x="73" y="303" width="20" height="20" rx="3" fill="#f9a825"/><rect x="98" y="303" width="20" height="20" rx="3" fill="#f9a825"/><rect x="123" y="303" width="20" height="20" rx="3" fill="#f9a825"/><rect x="148" y="303" width="20" height="20" rx="3" fill="#f9a825"/><rect x="173" y="303" width="20" height="20" rx="3" fill="#f9a825"/><rect x="198" y="303" width="20" height="20" rx="3" fill="#f9a825"/><rect x="223" y="303" width="20" height="20" rx="3" fill="#ef5350"/><rect x="248" y="303" width="20" height="20" rx="3" fill="#ef5350"/><rect x="273" y="303" width="20" height="20" rx="3" fill="#ef5350"/>
  <rect x="365" y="72" width="14" height="14" rx="2" fill="#00897b"/><text x="387" y="83" font-size="14" font-weight="700" fill="#263238">filter</text><text x="555" y="83" font-size="14" fill="#455a64">107 rows / 60.1%</text><rect x="365" y="114" width="14" height="14" rx="2" fill="#5c6bc0"/><text x="387" y="125" font-size="14" font-weight="700" fill="#263238">conversation</text><text x="555" y="125" font-size="14" fill="#455a64">48 rows / 27.0%</text><rect x="365" y="156" width="14" height="14" rx="2" fill="#f9a825"/><text x="387" y="167" font-size="14" font-weight="700" fill="#263238">application_inbox</text><text x="555" y="167" font-size="14" fill="#455a64">17 rows / 9.6%</text><rect x="365" y="198" width="14" height="14" rx="2" fill="#ef5350"/><text x="387" y="209" font-size="14" font-weight="700" fill="#263238">action_review</text><text x="555" y="209" font-size="14" fill="#455a64">6 rows / 3.4%</text>
</svg>
