<svg xmlns="http://www.w3.org/2000/svg" width="940" height="620" viewBox="0 0 940 620" role="img" aria-label="Subtype architectures: full route+subtype accuracy">
  <rect width="100%" height="100%" fill="#ffffff"/>
  <text x="20" y="34" font-size="22" font-weight="700" fill="#102027">Subtype architectures: full route+subtype accuracy</text>
  <text x="170" y="60" font-size="12" fill="#607d8b">0</text>
  <text x="870" y="60" font-size="12" fill="#607d8b">100%</text>
  <line x1="170" y1="64" x2="905" y2="64" stroke="#cfd8dc"/>
  <text x="20" y="92" font-size="15" font-weight="700" fill="#263238">Random split</text><text x="42" y="117" font-size="13" fill="#455a64">heuristic</text><rect x="170" y="101" width="735" height="18" fill="#eef2f3" rx="4"/><rect x="170" y="101" width="362.6" height="18" fill="#78909c" rx="4"/><text x="540.6" y="115" font-size="12" fill="#263238">49.3%</text><text x="42" y="142" font-size="13" fill="#455a64">global combo LR</text><rect x="170" y="126" width="735" height="18" fill="#eef2f3" rx="4"/><rect x="170" y="126" width="623.9" height="18" fill="#7e57c2" rx="4"/><text x="801.9" y="140" font-size="12" fill="#263238">84.9%</text><text x="42" y="167" font-size="13" fill="#455a64">LR route -&gt; LR subtype</text><rect x="170" y="151" width="735" height="18" fill="#eef2f3" rx="4"/><rect x="170" y="151" width="584.7" height="18" fill="#00897b" rx="4"/><text x="762.7" y="165" font-size="12" fill="#263238">79.6%</text><text x="42" y="192" font-size="13" fill="#455a64">oracle route -&gt; LR subtype</text><rect x="170" y="176" width="735" height="18" fill="#eef2f3" rx="4"/><rect x="170" y="176" width="627.2" height="18" fill="#f9a825" rx="4"/><text x="805.2" y="190" font-size="12" fill="#263238">85.3%</text><text x="20" y="214" font-size="15" font-weight="700" fill="#263238">Sender-domain grouped</text><text x="42" y="239" font-size="13" fill="#455a64">heuristic</text><rect x="170" y="223" width="735" height="18" fill="#eef2f3" rx="4"/><rect x="170" y="223" width="297.9" height="18" fill="#78909c" rx="4"/><text x="475.9" y="237" font-size="12" fill="#263238">40.5%</text><text x="42" y="264" font-size="13" fill="#455a64">global combo LR</text><rect x="170" y="248" width="735" height="18" fill="#eef2f3" rx="4"/><rect x="170" y="248" width="210.8" height="18" fill="#7e57c2" rx="4"/><text x="388.8" y="262" font-size="12" fill="#263238">28.7%</text><text x="42" y="289" font-size="13" fill="#455a64">LR route -&gt; LR subtype</text><rect x="170" y="273" width="735" height="18" fill="#eef2f3" rx="4"/><rect x="170" y="273" width="245.3" height="18" fill="#00897b" rx="4"/><text x="423.3" y="287" font-size="12" fill="#263238">33.4%</text><text x="42" y="314" font-size="13" fill="#455a64">oracle route -&gt; LR subtype</text><rect x="170" y="298" width="735" height="18" fill="#eef2f3" rx="4"/><rect x="170" y="298" width="349.9" height="18" fill="#f9a825" rx="4"/><text x="527.9" y="312" font-size="12" fill="#263238">47.6%</text><text x="20" y="336" font-size="15" font-weight="700" fill="#263238">Source/account grouped</text><text x="42" y="361" font-size="13" fill="#455a64">heuristic</text><rect x="170" y="345" width="735" height="18" fill="#eef2f3" rx="4"/><rect x="170" y="345" width="341.8" height="18" fill="#78909c" rx="4"/><text x="519.8" y="359" font-size="12" fill="#263238">46.5%</text><text x="42" y="386" font-size="13" fill="#455a64">global combo LR</text><rect x="170" y="370" width="735" height="18" fill="#eef2f3" rx="4"/><rect x="170" y="370" width="39.8" height="18" fill="#7e57c2" rx="4"/><text x="217.8" y="384" font-size="12" fill="#263238">5.4%</text><text x="42" y="411" font-size="13" fill="#455a64">LR route -&gt; LR subtype</text><rect x="170" y="395" width="735" height="18" fill="#eef2f3" rx="4"/><rect x="170" y="395" width="201.3" height="18" fill="#00897b" rx="4"/><text x="379.3" y="409" font-size="12" fill="#263238">27.4%</text><text x="42" y="436" font-size="13" fill="#455a64">oracle route -&gt; LR subtype</text><rect x="170" y="420" width="735" height="18" fill="#eef2f3" rx="4"/><rect x="170" y="420" width="451.1" height="18" fill="#f9a825" rx="4"/><text x="629.1" y="434" font-size="12" fill="#263238">61.4%</text>
</svg>
