<svg xmlns="http://www.w3.org/2000/svg" width="940" height="500" viewBox="0 0 940 500" role="img" aria-label="Route-only LR: random split vs grouped splits">
  <rect width="100%" height="100%" fill="#ffffff"/>
  <text x="20" y="34" font-size="22" font-weight="700" fill="#102027">Route-only LR: random split vs grouped splits</text>
  <text x="170" y="60" font-size="12" fill="#607d8b">0</text>
  <text x="870" y="60" font-size="12" fill="#607d8b">100%</text>
  <line x1="170" y1="64" x2="905" y2="64" stroke="#cfd8dc"/>
  <text x="20" y="92" font-size="15" font-weight="700" fill="#263238">Random split</text><text x="42" y="117" font-size="13" fill="#455a64">heuristic route acc</text><rect x="170" y="101" width="735" height="18" fill="#eef2f3" rx="4"/><rect x="170" y="101" width="565.1" height="18" fill="#78909c" rx="4"/><text x="743.1" y="115" font-size="12" fill="#263238">76.9%</text><text x="42" y="142" font-size="13" fill="#455a64">LR route acc</text><rect x="170" y="126" width="735" height="18" fill="#eef2f3" rx="4"/><rect x="170" y="126" width="692.5" height="18" fill="#00897b" rx="4"/><text x="870.5" y="140" font-size="12" fill="#263238">94.2%</text><text x="42" y="167" font-size="13" fill="#455a64">heuristic macro F1</text><rect x="170" y="151" width="735" height="18" fill="#eef2f3" rx="4"/><rect x="170" y="151" width="486.1" height="18" fill="#b0bec5" rx="4"/><text x="664.1" y="165" font-size="12" fill="#263238">66.1%</text><text x="42" y="192" font-size="13" fill="#455a64">LR macro F1</text><rect x="170" y="176" width="735" height="18" fill="#eef2f3" rx="4"/><rect x="170" y="176" width="673.0" height="18" fill="#26a69a" rx="4"/><text x="851.0" y="190" font-size="12" fill="#263238">91.6%</text><text x="20" y="214" font-size="15" font-weight="700" fill="#263238">Sender-domain grouped</text><text x="42" y="239" font-size="13" fill="#455a64">heuristic route acc</text><rect x="170" y="223" width="735" height="18" fill="#eef2f3" rx="4"/><rect x="170" y="223" width="521.9" height="18" fill="#78909c" rx="4"/><text x="699.9" y="237" font-size="12" fill="#263238">71.0%</text><text x="42" y="264" font-size="13" fill="#455a64">LR route acc</text><rect x="170" y="248" width="735" height="18" fill="#eef2f3" rx="4"/><rect x="170" y="248" width="601.9" height="18" fill="#00897b" rx="4"/><text x="779.9" y="262" font-size="12" fill="#263238">81.9%</text><text x="42" y="289" font-size="13" fill="#455a64">heuristic macro F1</text><rect x="170" y="273" width="735" height="18" fill="#eef2f3" rx="4"/><rect x="170" y="273" width="366.6" height="18" fill="#b0bec5" rx="4"/><text x="544.6" y="287" font-size="12" fill="#263238">49.9%</text><text x="42" y="314" font-size="13" fill="#455a64">LR macro F1</text><rect x="170" y="298" width="735" height="18" fill="#eef2f3" rx="4"/><rect x="170" y="298" width="330.2" height="18" fill="#26a69a" rx="4"/><text x="508.2" y="312" font-size="12" fill="#263238">44.9%</text><text x="20" y="336" font-size="15" font-weight="700" fill="#263238">Source/account grouped</text><text x="42" y="361" font-size="13" fill="#455a64">heuristic route acc</text><rect x="170" y="345" width="735" height="18" fill="#eef2f3" rx="4"/><rect x="170" y="345" width="545.3" height="18" fill="#78909c" rx="4"/><text x="723.3" y="359" font-size="12" fill="#263238">74.2%</text><text x="42" y="386" font-size="13" fill="#455a64">LR route acc</text><rect x="170" y="370" width="735" height="18" fill="#eef2f3" rx="4"/><rect x="170" y="370" width="410.8" height="18" fill="#00897b" rx="4"/><text x="588.8" y="384" font-size="12" fill="#263238">55.9%</text><text x="42" y="411" font-size="13" fill="#455a64">heuristic macro F1</text><rect x="170" y="395" width="735" height="18" fill="#eef2f3" rx="4"/><rect x="170" y="395" width="321.1" height="18" fill="#b0bec5" rx="4"/><text x="499.1" y="409" font-size="12" fill="#263238">43.7%</text><text x="42" y="436" font-size="13" fill="#455a64">LR macro F1</text><rect x="170" y="420" width="735" height="18" fill="#eef2f3" rx="4"/><rect x="170" y="420" width="161.7" height="18" fill="#26a69a" rx="4"/><text x="339.7" y="434" font-size="12" fill="#263238">22.0%</text>
</svg>
