<svg xmlns="http://www.w3.org/2000/svg" width="940" height="430" viewBox="0 0 940 430" role="img" aria-label="Label mix across my three synced inboxes">
  <rect width="100%" height="100%" fill="#ffffff"/>
  <text x="20" y="34" font-size="22" font-weight="700" fill="#102027">Label mix across my three synced inboxes</text>
  <rect x="20" y="56" width="12" height="12" fill="#00897b"/><text x="38" y="67" font-size="12" fill="#455a64">filter</text><rect x="114" y="56" width="12" height="12" fill="#5c6bc0"/><text x="132" y="67" font-size="12" fill="#455a64">conversation</text><rect x="250" y="56" width="12" height="12" fill="#f9a825"/><text x="268" y="67" font-size="12" fill="#455a64">application_inbox</text><rect x="421" y="56" width="12" height="12" fill="#ef5350"/><text x="439" y="67" font-size="12" fill="#455a64">action_review</text>
  <text x="20" y="104" font-size="14" font-weight="700" fill="#263238">alumni job board promos</text><text x="20" y="122" font-size="12" fill="#607d8b">n=99</text><rect x="190.0" y="86" width="418.9" height="24" fill="#00897b"/><text x="399.4" y="103" text-anchor="middle" font-size="12" fill="#ffffff">59%</text><rect x="608.9" y="86" width="281.7" height="24" fill="#5c6bc0"/><text x="749.7" y="103" text-anchor="middle" font-size="12" fill="#ffffff">39%</text><rect x="890.6" y="86" width="14.4" height="24" fill="#f9a825"/><rect x="190" y="86" width="715" height="24" fill="none" stroke="#cfd8dc"/><text x="20" y="156" font-size="14" font-weight="700" fill="#263238">junk noise</text><text x="20" y="174" font-size="12" fill="#607d8b">n=2</text><rect x="190.0" y="138" width="715.0" height="24" fill="#00897b"/><text x="547.5" y="155" text-anchor="middle" font-size="12" fill="#ffffff">100%</text><rect x="190" y="138" width="715" height="24" fill="none" stroke="#cfd8dc"/><text x="20" y="208" font-size="14" font-weight="700" fill="#263238">main applications</text><text x="20" y="226" font-size="12" fill="#607d8b">n=77</text><rect x="190.0" y="190" width="436.4" height="24" fill="#00897b"/><text x="408.2" y="207" text-anchor="middle" font-size="12" fill="#ffffff">61%</text><rect x="626.4" y="190" width="83.6" height="24" fill="#5c6bc0"/><text x="668.2" y="207" text-anchor="middle" font-size="12" fill="#ffffff">12%</text><rect x="710.0" y="190" width="139.3" height="24" fill="#f9a825"/><text x="779.6" y="207" text-anchor="middle" font-size="12" fill="#ffffff">19%</text><rect x="849.3" y="190" width="55.7" height="24" fill="#ef5350"/><rect x="190" y="190" width="715" height="24" fill="none" stroke="#cfd8dc"/>
</svg>
