<svg xmlns="http://www.w3.org/2000/svg" width="920" height="360" viewBox="0 0 920 360" role="img" aria-label="Route-first rewrite: before vs after">
  <rect width="100%" height="100%" fill="#ffffff"/>
  <text x="28" y="34" font-size="22" font-weight="700" fill="#102027">Route-first rewrite: before vs after</text>
  <text x="260" y="62" font-size="12" fill="#607d8b">0%</text>
  <text x="805" y="62" font-size="12" fill="#607d8b">100%</text>
  <line x1="260" y1="68" x2="840" y2="68" stroke="#cfd8dc"/>
  <circle cx="732" cy="34" r="7" fill="#78909c"/><text x="744" y="38" font-size="12" fill="#455a64">before</text>
  <circle cx="800" cy="34" r="7" fill="#00897b"/><text x="812" y="38" font-size="12" fill="#455a64">after</text>
  <text x="28" y="93" font-size="14" fill="#263238">Route accuracy</text><line x1="477.5" y1="88" x2="651.5" y2="88" stroke="#90a4ae" stroke-width="4" stroke-linecap="round"/><circle cx="477.5" cy="88" r="8" fill="#78909c"/><circle cx="651.5" cy="88" r="8" fill="#00897b"/><text x="477.5" y="115" text-anchor="middle" font-size="12" fill="#455a64">37.5%</text><text x="651.5" y="73" text-anchor="middle" font-size="12" font-weight="700" fill="#00695c">67.5%</text><text x="878" y="93" text-anchor="end" font-size="13" fill="#263238">+30.0 pts</text><text x="28" y="151" font-size="14" fill="#263238">Subtype accuracy</text><line x1="260.0" y1="146" x2="455.8" y2="146" stroke="#90a4ae" stroke-width="4" stroke-linecap="round"/><circle cx="260.0" cy="146" r="8" fill="#78909c"/><circle cx="455.8" cy="146" r="8" fill="#00897b"/><text x="260.0" y="173" text-anchor="middle" font-size="12" fill="#455a64">0.0%</text><text x="455.8" y="131" text-anchor="middle" font-size="12" font-weight="700" fill="#00695c">33.8%</text><text x="878" y="151" text-anchor="end" font-size="13" fill="#263238">+33.8 pts</text><text x="28" y="209" font-size="14" fill="#263238">Storage-surface accuracy</text><line x1="477.5" y1="204" x2="658.8" y2="204" stroke="#90a4ae" stroke-width="4" stroke-linecap="round"/><circle cx="477.5" cy="204" r="8" fill="#78909c"/><circle cx="658.8" cy="204" r="8" fill="#00897b"/><text x="477.5" y="231" text-anchor="middle" font-size="12" fill="#455a64">37.5%</text><text x="658.8" y="189" text-anchor="middle" font-size="12" font-weight="700" fill="#00695c">68.8%</text><text x="878" y="209" text-anchor="end" font-size="13" fill="#263238">+31.2 pts</text>
</svg>
