<svg xmlns="http://www.w3.org/2000/svg" width="940" height="690" viewBox="0 0 940 690" role="img" aria-label="Subtype label coverage is sparse outside the top classes">
  <rect width="100%" height="100%" fill="#ffffff"/>
  <text x="24" y="34" font-size="22" font-weight="700" fill="#102027">Subtype label coverage is sparse outside the top classes</text>
  <line x1="245" y1="54" x2="880" y2="54" stroke="#cfd8dc"/>
  <line x1="356.4" y1="58" x2="356.4" y2="662" stroke="#f9a825" stroke-dasharray="5 5"/>
  <text x="364.4" y="71" font-size="12" fill="#8d6e00">10-row rough floor</text>
  <text x="245" y="48" font-size="12" fill="#607d8b">0</text>
  <text x="858" y="48" font-size="12" fill="#607d8b">57</text>
  <line x1="245" y1="76" x2="880" y2="76" stroke="#eceff1"/><text x="24" y="81" font-size="13" fill="#263238">job_alert</text><circle cx="880.0" cy="76" r="8" fill="#00897b"/><text x="893.0" y="81" font-size="12" fill="#263238">57</text><line x1="245" y1="114" x2="880" y2="114" stroke="#eceff1"/><text x="24" y="119" font-size="13" fill="#263238">recruiter_outreach</text><circle cx="757.5" cy="114" r="8" fill="#00897b"/><text x="770.5" y="119" font-size="12" fill="#263238">46</text><line x1="245" y1="152" x2="880" y2="152" stroke="#eceff1"/><text x="24" y="157" font-size="13" fill="#263238">application_received</text><circle cx="412.1" cy="152" r="8" fill="#00897b"/><text x="425.1" y="157" font-size="12" fill="#263238">15</text><line x1="245" y1="190" x2="880" y2="190" stroke="#eceff1"/><text x="24" y="195" font-size="13" fill="#263238">system_notification</text><circle cx="378.7" cy="190" r="8" fill="#00897b"/><text x="391.7" y="195" font-size="12" fill="#263238">12</text><line x1="245" y1="228" x2="880" y2="228" stroke="#eceff1"/><text x="24" y="233" font-size="13" fill="#263238">job_board_promo</text><circle cx="367.5" cy="228" r="8" fill="#00897b"/><text x="380.5" y="233" font-size="12" fill="#263238">11</text><line x1="245" y1="266" x2="880" y2="266" stroke="#eceff1"/><text x="24" y="271" font-size="13" fill="#263238">company_newsletter</text><circle cx="311.8" cy="266" r="8" fill="#ef5350"/><text x="324.8" y="271" font-size="12" fill="#263238">6</text><line x1="245" y1="304" x2="880" y2="304" stroke="#eceff1"/><text x="24" y="309" font-size="13" fill="#263238">marketing_promo</text><circle cx="311.8" cy="304" r="8" fill="#ef5350"/><text x="324.8" y="309" font-size="12" fill="#263238">6</text><line x1="245" y1="342" x2="880" y2="342" stroke="#eceff1"/><text x="24" y="347" font-size="13" fill="#263238">unknown_other</text><circle cx="311.8" cy="342" r="8" fill="#ef5350"/><text x="324.8" y="347" font-size="12" fill="#263238">6</text><line x1="245" y1="380" x2="880" y2="380" stroke="#eceff1"/><text x="24" y="385" font-size="13" fill="#263238">finance_noise</text><circle cx="289.6" cy="380" r="8" fill="#ef5350"/><text x="302.6" y="385" font-size="12" fill="#263238">4</text><line x1="245" y1="418" x2="880" y2="418" stroke="#eceff1"/><text x="24" y="423" font-size="13" fill="#263238">interview_request</text><circle cx="289.6" cy="418" r="8" fill="#ef5350"/><text x="302.6" y="423" font-size="12" fill="#263238">4</text><line x1="245" y1="456" x2="880" y2="456" stroke="#eceff1"/><text x="24" y="461" font-size="13" fill="#263238">retail_noise</text><circle cx="289.6" cy="456" r="8" fill="#ef5350"/><text x="302.6" y="461" font-size="12" fill="#263238">4</text><line x1="245" y1="494" x2="880" y2="494" stroke="#eceff1"/><text x="24" y="499" font-size="13" fill="#263238">assessment_or_task</text><circle cx="278.4" cy="494" r="8" fill="#ef5350"/><text x="291.4" y="499" font-size="12" fill="#263238">3</text><line x1="245" y1="532" x2="880" y2="532" stroke="#eceff1"/><text x="24" y="537" font-size="13" fill="#263238">referral_or_networking</text><circle cx="278.4" cy="532" r="8" fill="#ef5350"/><text x="291.4" y="537" font-size="12" fill="#263238">3</text><line x1="245" y1="570" x2="880" y2="570" stroke="#eceff1"/><text x="24" y="575" font-size="13" fill="#263238">school_or_alumni_update</text><circle cx="256.1" cy="570" r="8" fill="#ef5350"/><text x="269.1" y="575" font-size="12" fill="#263238">1</text>
</svg>
