<svg xmlns="http://www.w3.org/2000/svg" width="1040" height="520" viewBox="0 0 1040 520" role="img" aria-label="Prompt run cost, latency, and token footprint">
<rect width="100%" height="100%" fill="#ffffff"/>
<text x="32" y="40" font-size="24" font-weight="700" fill="#102027">Prompt run cost, latency, and token footprint</text>
<text x="32" y="68" font-size="13" fill="#607d8b">Single resume/JD runs are cheap; the product issue is scale, repeat runs, context bloat, and factuality.</text>
<text x="230" y="102" font-size="13" fill="#607d8b">Total tokens</text>
<text x="680" y="102" font-size="13" fill="#607d8b">Latency</text>
<text x="36" y="142" font-size="14" font-weight="700" fill="#102027">DraftKings lazy</text>
<rect x="230" y="120" width="380" height="28" rx="6" fill="#eef2f5"/>
<rect x="230" y="120" width="291" height="28" rx="6" fill="#dc2626"/>
<text x="531" y="140" font-size="13" fill="#263238">1,559</text>
<rect x="680" y="120" width="190" height="28" rx="6" fill="#eef2f5"/>
<rect x="680" y="120" width="166" height="28" rx="6" fill="#2563eb"/>
<text x="880" y="140" font-size="13" fill="#263238">8.5s</text>
<text x="954" y="140" font-size="13" font-weight="700" fill="#102027">$0.01</text>
<text x="36" y="224" font-size="14" font-weight="700" fill="#102027">DraftKings engineered</text>
<rect x="230" y="202" width="380" height="28" rx="6" fill="#eef2f5"/>
<rect x="230" y="202" width="378" height="28" rx="6" fill="#f59e0b"/>
<text x="618" y="222" font-size="13" fill="#263238">2,021</text>
<rect x="680" y="202" width="190" height="28" rx="6" fill="#eef2f5"/>
<rect x="680" y="202" width="152" height="28" rx="6" fill="#2563eb"/>
<text x="880" y="222" font-size="13" fill="#263238">7.8s</text>
<text x="954" y="222" font-size="13" font-weight="700" fill="#102027">$0.02</text>
<text x="36" y="306" font-size="14" font-weight="700" fill="#102027">Marketing lazy</text>
<rect x="230" y="284" width="380" height="28" rx="6" fill="#eef2f5"/>
<rect x="230" y="284" width="318" height="28" rx="6" fill="#dc2626"/>
<text x="558" y="304" font-size="13" fill="#263238">1,703</text>
<rect x="680" y="284" width="190" height="28" rx="6" fill="#eef2f5"/>
<rect x="680" y="284" width="190" height="28" rx="6" fill="#2563eb"/>
<text x="880" y="304" font-size="13" fill="#263238">9.7s</text>
<text x="954" y="304" font-size="13" font-weight="700" fill="#102027">$0.01</text>
<text x="36" y="388" font-size="14" font-weight="700" fill="#102027">Marketing engineered</text>
<rect x="230" y="366" width="380" height="28" rx="6" fill="#eef2f5"/>
<rect x="230" y="366" width="380" height="28" rx="6" fill="#f59e0b"/>
<text x="620" y="386" font-size="13" fill="#263238">2,029</text>
<rect x="680" y="366" width="190" height="28" rx="6" fill="#eef2f5"/>
<rect x="680" y="366" width="160" height="28" rx="6" fill="#2563eb"/>
<text x="880" y="386" font-size="13" fill="#263238">8.2s</text>
<text x="954" y="386" font-size="13" font-weight="700" fill="#102027">$0.02</text>
<text x="36" y="478" font-size="12" fill="#607d8b">Pricing uses local app config; verify current provider pricing before publication.</text>
</svg>